
<svg xmlns="http://www.w3.org/2000/svg" width="1400" height="300" viewBox="0 0 1400 300">
  <rect width="1400" height="300" fill="#0d1117"/>

  <rect x="30" y="30" width="1340" height="240" rx="22" fill="#161b22" stroke="#30363d"/>

  <text x="60" y="82" fill="#f0f6fc" font-size="30" font-family="Arial" font-weight="700">
    Last 90 days uptime
  </text>

  <text x="1030" y="75" fill="#8b949e" font-size="17" font-family="Arial">
    Last updated Jul 14, 2026
  </text>

  <text x="1030" y="105" fill="#8b949e" font-size="17" font-family="Arial">
    43 incidents in last 90 days
  </text>

  <text x="60" y="130" fill="#f0f6fc" font-size="21" font-family="Arial" font-weight="700">
    GitHub Platform
  </text>

  <text x="1160" y="130" fill="#8b949e" font-size="21" font-family="Arial" font-weight="700">
    52.22% uptime
  </text>

  <rect x="48" y="150" width="9" height="54" rx="4" fill="#cf222e"/><rect x="62" y="150" width="9" height="54" rx="4" fill="#d97706"/><rect x="76" y="150" width="9" height="54" rx="4" fill="#2da44e"/><rect x="90" y="150" width="9" height="54" rx="4" fill="#2da44e"/><rect x="104" y="150" width="9" height="54" rx="4" fill="#cf222e"/><rect x="118" y="150" width="9" height="54" rx="4" fill="#d97706"/><rect x="132" y="150" width="9" height="54" rx="4" fill="#d97706"/><rect x="146" y="150" width="9" height="54" rx="4" fill="#d97706"/><rect x="160" y="150" width="9" height="54" rx="4" fill="#d97706"/><rect x="174" y="150" width="9" height="54" rx="4" fill="#2da44e"/><rect x="188" y="150" width="9" height="54" rx="4" fill="#2da44e"/><rect x="202" y="150" width="9" height="54" rx="4" fill="#d97706"/><rect x="216" y="150" width="9" height="54" rx="4" fill="#d97706"/><rect x="230" y="150" width="9" height="54" rx="4" fill="#2da44e"/><rect x="244" y="150" width="9" height="54" rx="4" fill="#2da44e"/><rect x="258" y="150" width="9" height="54" rx="4" fill="#2da44e"/><rect x="272" y="150" width="9" height="54" rx="4" fill="#2da44e"/><rect x="286" y="150" width="9" height="54" rx="4" fill="#2da44e"/><rect x="300" y="150" width="9" height="54" rx="4" fill="#d97706"/><rect x="314" y="150" width="9" height="54" rx="4" fill="#d97706"/><rect x="328" y="150" width="9" height="54" rx="4" fill="#cf222e"/><rect x="342" y="150" width="9" height="54" rx="4" fill="#2da44e"/><rect x="356" y="150" width="9" height="54" rx="4" fill="#2da44e"/><rect x="370" y="150" width="9" height="54" rx="4" fill="#2da44e"/><rect x="384" y="150" width="9" height="54" rx="4" fill="#2da44e"/><rect x="398" y="150" width="9" height="54" rx="4" fill="#d97706"/><rect x="412" y="150" width="9" height="54" rx="4" fill="#d97706"/><rect x="426" y="150" width="9" height="54" rx="4" fill="#d97706"/><rect x="440" y="150" width="9" height="54" rx="4" fill="#2da44e"/><rect x="454" y="150" width="9" height="54" rx="4" fill="#d97706"/><rect x="468" y="150" width="9" height="54" rx="4" fill="#2da44e"/><rect x="482" y="150" width="9" height="54" rx="4" fill="#2da44e"/><rect x="496" y="150" width="9" height="54" rx="4" fill="#2da44e"/><rect x="510" y="150" width="9" height="54" rx="4" fill="#d97706"/><rect x="524" y="150" width="9" height="54" rx="4" fill="#d97706"/><rect x="538" y="150" width="9" height="54" rx="4" fill="#2da44e"/><rect x="552" y="150" width="9" height="54" rx="4" fill="#2da44e"/><rect x="566" y="150" width="9" height="54" rx="4" fill="#d97706"/><rect x="580" y="150" width="9" height="54" rx="4" fill="#2da44e"/><rect x="594" y="150" width="9" height="54" rx="4" fill="#cf222e"/><rect x="608" y="150" width="9" height="54" rx="4" fill="#cf222e"/><rect x="622" y="150" width="9" height="54" rx="4" fill="#d97706"/><rect x="636" y="150" width="9" height="54" rx="4" fill="#d97706"/><rect x="650" y="150" width="9" height="54" rx="4" fill="#2da44e"/><rect x="664" y="150" width="9" height="54" rx="4" fill="#2da44e"/><rect x="678" y="150" width="9" height="54" rx="4" fill="#2da44e"/><rect x="692" y="150" width="9" height="54" rx="4" fill="#d97706"/><rect x="706" y="150" width="9" height="54" rx="4" fill="#2da44e"/><rect x="720" y="150" width="9" height="54" rx="4" fill="#d97706"/><rect x="734" y="150" width="9" height="54" rx="4" fill="#d97706"/><rect x="748" y="150" width="9" height="54" rx="4" fill="#cf222e"/><rect x="762" y="150" width="9" height="54" rx="4" fill="#d97706"/><rect x="776" y="150" width="9" height="54" rx="4" fill="#2da44e"/><rect x="790" y="150" width="9" height="54" rx="4" fill="#d97706"/><rect x="804" y="150" width="9" height="54" rx="4" fill="#2da44e"/><rect x="818" y="150" width="9" height="54" rx="4" fill="#d97706"/><rect x="832" y="150" width="9" height="54" rx="4" fill="#d97706"/><rect x="846" y="150" width="9" height="54" rx="4" fill="#2da44e"/><rect x="860" y="150" width="9" height="54" rx="4" fill="#2da44e"/><rect x="874" y="150" width="9" height="54" rx="4" fill="#2da44e"/><rect x="888" y="150" width="9" height="54" rx="4" fill="#d97706"/><rect x="902" y="150" width="9" height="54" rx="4" fill="#cf222e"/><rect x="916" y="150" width="9" height="54" rx="4" fill="#d97706"/><rect x="930" y="150" width="9" height="54" rx="4" fill="#2da44e"/><rect x="944" y="150" width="9" height="54" rx="4" fill="#2da44e"/><rect x="958" y="150" width="9" height="54" rx="4" fill="#2da44e"/><rect x="972" y="150" width="9" height="54" rx="4" fill="#2da44e"/><rect x="986" y="150" width="9" height="54" rx="4" fill="#2da44e"/><rect x="1000" y="150" width="9" height="54" rx="4" fill="#d97706"/><rect x="1014" y="150" width="9" height="54" rx="4" fill="#2da44e"/><rect x="1028" y="150" width="9" height="54" rx="4" fill="#cf222e"/><rect x="1042" y="150" width="9" height="54" rx="4" fill="#2da44e"/><rect x="1056" y="150" width="9" height="54" rx="4" fill="#d97706"/><rect x="1070" y="150" width="9" height="54" rx="4" fill="#d97706"/><rect x="1084" y="150" width="9" height="54" rx="4" fill="#2da44e"/><rect x="1098" y="150" width="9" height="54" rx="4" fill="#d97706"/><rect x="1112" y="150" width="9" height="54" rx="4" fill="#d97706"/><rect x="1126" y="150" width="9" height="54" rx="4" fill="#d97706"/><rect x="1140" y="150" width="9" height="54" rx="4" fill="#2da44e"/><rect x="1154" y="150" width="9" height="54" rx="4" fill="#2da44e"/><rect x="1168" y="150" width="9" height="54" rx="4" fill="#2da44e"/><rect x="1182" y="150" width="9" height="54" rx="4" fill="#2da44e"/><rect x="1196" y="150" width="9" height="54" rx="4" fill="#cf222e"/><rect x="1210" y="150" width="9" height="54" rx="4" fill="#2da44e"/><rect x="1224" y="150" width="9" height="54" rx="4" fill="#d97706"/><rect x="1238" y="150" width="9" height="54" rx="4" fill="#2da44e"/><rect x="1252" y="150" width="9" height="54" rx="4" fill="#2da44e"/><rect x="1266" y="150" width="9" height="54" rx="4" fill="#2da44e"/><rect x="1280" y="150" width="9" height="54" rx="4" fill="#2da44e"/><rect x="1294" y="150" width="9" height="54" rx="4" fill="#2da44e"/>

  <text x="60" y="232" fill="#8b949e" font-size="15" font-family="Arial">90 days ago</text>
  <text x="1250" y="232" fill="#8b949e" font-size="15" font-family="Arial">Today</text>

  <circle cx="60" cy="252" r="6" fill="#2da44e"/>
  <text x="74" y="257" fill="#8b949e" font-size="14" font-family="Arial">Operational</text>

  <circle cx="190" cy="252" r="6" fill="#1f6feb"/>
  <text x="204" y="257" fill="#8b949e" font-size="14" font-family="Arial">Maintenance</text>

  <circle cx="335" cy="252" r="6" fill="#d97706"/>
  <text x="349" y="257" fill="#8b949e" font-size="14" font-family="Arial">Minor</text>

  <circle cx="430" cy="252" r="6" fill="#cf222e"/>
  <text x="444" y="257" fill="#8b949e" font-size="14" font-family="Arial">Major</text>
</svg>